<svg xmlns="http://www.w3.org/2000/svg" viewBox="0 0 256 256"><defs><style>.cls-1{fill:#fdef0a;}.cls-2,.cls-3{fill:#1bc0c0;}.cls-2{opacity:0.5;isolation:isolate;}.cls-4{fill:#fff;}</style></defs><title>icon</title><g id="Layer_2" data-name="Layer 2"><g id="Layer_1-2" data-name="Layer 1"><g id="Layer_2-2" data-name="Layer 2"><g id="Layer_1-2-2" data-name="Layer 1-2"><rect class="cls-1" width="256" height="256"/><path class="cls-2" d="M72.5,152.29l7.38-12.35A157.44,157.44,0,0,0,97.57,96.88l3.32-13.46a21.13,21.13,0,0,1,25.4-15.74l.33.08a20.36,20.36,0,0,1,4.24,1.61L167.5,87.94A172.73,172.73,0,0,0,192,98.07l32.83,10.71a20.61,20.61,0,0,1,5.41,2.65,21.08,21.08,0,0,1,6.95,26.5l-10,21.34a91.85,91.85,0,0,0-7.88,26.89l-2.9,21.9a21.13,21.13,0,0,1-26.5,17.85,20.13,20.13,0,0,1-3.5-1.32L179.06,221a23.88,23.88,0,0,1-21.87,18.83s8.67-3.76,5.07-26.93l-19.76-9.53a141.07,141.07,0,0,0-18.71-7.43L84,183.35a20.29,20.29,0,0,1-4.22-1.86,21.13,21.13,0,0,1-7.43-28.94Z"/><path class="cls-3" d="M213.2,129.36l-6.32-16.42a192.54,192.54,0,0,1-12.35-55.58l-1.19-16.91a25.84,25.84,0,0,0-27.75-24.24,24.9,24.9,0,0,0-5.44,1.06L112.07,32a211.25,211.25,0,0,1-31.61,7.1L38.67,45.18a25.21,25.21,0,0,0-7.08,2.07A25.78,25.78,0,0,0,17.7,77.71l7.6,27.79a112.33,112.33,0,0,1,3.9,34l-1.06,27a25.84,25.84,0,0,0,28.23,27,24.61,24.61,0,0,0,4.5-.87L70.43,190a29.21,29.21,0,0,0,22.43,27.25s-9.67-6.33-.5-33.5l25.83-7.38a172.5,172.5,0,0,1,24.1-5.06l50.55-6.88a24.81,24.81,0,0,0,5.5-1.36,25.84,25.84,0,0,0,15-33.31l-.14-.37Z"/><rect class="cls-4" x="84.44" y="101.61" width="27.11" height="27.11" transform="translate(-14.16 13.74) rotate(-7.48)"/><path class="cls-4" d="M92.82,77.74l5.55,5.5s-9.55,7.46.1,18.85l-16,2S81.64,89.11,92.82,77.74Z"/><rect class="cls-4" x="119.96" y="97.81" width="27.15" height="27.15" transform="translate(-12.87 17.56) rotate(-7.18)"/><path class="cls-4" d="M128.74,73.21l5.55,5.5s-9.55,7.46.1,18.85l-16,2S117.56,84.58,128.74,73.21Z"/></g></g></g></g></svg>